<svg width="72" height="80" viewBox="0 0 72 80" fill="none" xmlns="http://www.w3.org/2000/svg">
<path d="M45.66 22.7874L45.4405 23.8365L46.5014 23.6833C47.0227 23.608 47.5561 23.5689 48.0991 23.5689C54.2135 23.5689 59.1701 28.5256 59.1701 34.64C59.1701 40.7543 54.2135 45.711 48.0991 45.711H13.9827C7.8683 45.711 2.91162 40.7543 2.91162 34.64C2.91162 31.4163 4.2885 28.5152 6.48852 26.4909C8.46083 24.6761 11.0916 23.5689 13.9827 23.5689H15.5174C17.7117 23.5689 19.5954 22.5793 21.0295 21.4057C22.4631 20.2325 23.5081 18.8277 24.0432 17.8676L24.0895 17.7846L24.1136 17.6926C25.359 12.9414 29.6831 9.43704 34.8237 9.43704C40.9381 9.43704 45.8947 14.3937 45.8947 20.5081C45.8947 21.2901 45.8138 22.0524 45.66 22.7874Z" stroke="url(#paint0_linear)" stroke-width="1.5"/>
<path d="M39.9155 61.516V52.0255" stroke="#F2994A" stroke-width="1.5" stroke-linecap="round" stroke-linejoin="round"/>
<path d="M35.1714 56.7708L39.9166 52.0255L44.6618 56.7708" stroke="#F2994A" stroke-width="1.5" stroke-linecap="round" stroke-linejoin="round"/>
<path d="M22.9692 43.8917L27.7145 39.1464L32.4597 43.8917" stroke="#197BBD" stroke-width="0.683017" stroke-linecap="round" stroke-linejoin="round"/>
<g clip-path="url(#clip0)">
<path d="M24.8231 59.563L16.195 68.1912C15.6655 68.7206 15.6655 69.5791 16.195 70.1085L21.9471 75.8606C22.4766 76.3901 23.335 76.3901 23.8645 75.8606L32.4926 67.2325C33.022 66.703 33.022 65.8446 32.4926 65.3151L26.7405 59.563C26.211 59.0336 25.3526 59.0336 24.8231 59.563Z" stroke="#F2994A" stroke-width="1.5" stroke-linecap="round" stroke-linejoin="round"/>
<path d="M18.1128 72.0255L28.6583 61.48" stroke="#F2994A" stroke-width="1.5" stroke-linecap="round" stroke-linejoin="round"/>
</g>
<circle cx="17.0363" cy="17.0363" r="11.7215" transform="rotate(-30 17.0363 17.0363)" stroke="url(#paint1_linear)" stroke-width="1.5"/>
<path d="M20.7366 16.5399C20.9547 16.9177 21.0536 17.326 21.0332 17.7649C21.021 18.199 20.8894 18.6255 20.6384 19.0442C20.3955 19.4582 20.0501 19.8274 19.6022 20.1517L20.406 21.5439C20.4676 21.6506 20.4805 21.7582 20.4445 21.8666C20.4214 21.9785 20.3565 22.0652 20.2498 22.1269C20.143 22.1885 20.0313 22.2037 19.9147 22.1725C19.8111 22.1447 19.7284 22.0774 19.6668 21.9707L18.8701 20.5908C18.3337 20.8567 17.8032 21.0096 17.2787 21.0496C16.7542 21.0896 16.1899 21.0321 15.5857 20.8772C15.4398 20.8519 15.3336 20.7818 15.2672 20.6668C15.2103 20.5683 15.1951 20.4566 15.2216 20.3318C15.2563 20.2022 15.3229 20.109 15.4215 20.0521C15.5201 19.9952 15.6341 19.9841 15.7637 20.0188C16.699 20.3111 17.5946 20.2594 18.4504 19.8639L16.4587 16.4142C15.5492 16.6218 14.7871 16.6675 14.1725 16.5514C13.5579 16.4354 13.0538 16.0365 12.6602 15.3547C12.314 14.7552 12.2424 14.1285 12.4454 13.4747C12.6436 12.8127 13.0851 12.2402 13.77 11.7571L13.2223 10.8085C13.1606 10.7017 13.1437 10.5965 13.1715 10.4929C13.2027 10.3763 13.2717 10.2871 13.3785 10.2255C13.4853 10.1638 13.5928 10.151 13.7012 10.187C13.8131 10.21 13.8998 10.2749 13.9615 10.3817L14.5021 11.318C14.9611 11.1078 15.427 10.9757 15.8996 10.9218C16.3723 10.868 16.8019 10.9102 17.1883 11.0484C17.3921 11.1169 17.5225 11.2005 17.5794 11.299C17.6316 11.3894 17.6403 11.4993 17.6056 11.6289C17.5661 11.7502 17.4971 11.8394 17.3986 11.8963C17.3164 11.9437 17.23 11.9552 17.1393 11.9309C16.8176 11.81 16.4598 11.7593 16.0658 11.7787C15.6718 11.7981 15.2928 11.8909 14.9289 12.0573L16.8636 15.4084C17.463 15.2704 17.9856 15.1987 18.4314 15.1932C18.8807 15.1747 19.3028 15.2705 19.6979 15.4805C20.0964 15.6775 20.4426 16.0306 20.7366 16.5399ZM13.4098 14.8891C13.6469 15.2998 13.9763 15.5477 14.3978 15.6329C14.8275 15.7133 15.3556 15.6986 15.9822 15.5888L14.1897 12.484C13.73 12.8261 13.4283 13.2138 13.2843 13.6474C13.1356 14.0727 13.1775 14.4866 13.4098 14.8891ZM19.1825 19.4248C19.6292 19.0793 19.9286 18.6874 20.0807 18.2491C20.2282 17.8026 20.1881 17.3822 19.9604 16.988C19.7056 16.5656 19.3651 16.3077 18.9388 16.2144C18.5078 16.1128 17.9726 16.1151 17.3331 16.2215L19.1825 19.4248Z" fill="#F2994A"/>
<path d="M2.16162 34.6387C2.16162 41.1673 7.45409 46.4598 13.9827 46.4598H48.0991C54.6277 46.4598 59.9201 41.1673 59.9201 34.6387C59.9201 28.1101 54.6277 22.8177 48.0991 22.8177C47.5201 22.8177 46.9508 22.8593 46.3941 22.9397C46.5584 22.1546 46.6447 21.3408 46.6447 20.5068C46.6447 13.9783 41.3523 8.68579 34.8237 8.68579C29.3337 8.68579 24.7178 12.4283 23.3881 17.5012C22.4003 19.2734 19.4432 22.8177 15.5174 22.8177H13.9827C10.8962 22.8177 8.08599 24.0006 5.98068 25.9378C3.63281 28.0981 2.16162 31.1966 2.16162 34.6387Z" fill="white"/>
<path d="M45.66 22.7861L45.4405 23.8352L46.5014 23.682C47.0227 23.6067 47.5561 23.5677 48.0991 23.5677C54.2135 23.5677 59.1701 28.5243 59.1701 34.6387C59.1701 40.7531 54.2135 45.7098 48.0991 45.7098H13.9827C7.8683 45.7098 2.91162 40.7531 2.91162 34.6387C2.91162 31.415 4.2885 28.514 6.48852 26.4897C8.46083 24.6748 11.0916 23.5677 13.9827 23.5677H15.5174C17.7117 23.5677 19.5954 22.578 21.0295 21.4044C22.4631 20.2312 23.5081 18.8265 24.0432 17.8664L24.0895 17.7833L24.1136 17.6914C25.359 12.9401 29.6831 9.43579 34.8237 9.43579C40.9381 9.43579 45.8947 14.3925 45.8947 20.5068C45.8947 21.2889 45.8138 22.0512 45.66 22.7861Z" stroke="url(#paint2_linear)" stroke-width="1.5"/>
<path d="M68.2278 13.6526C68.0766 15.288 67.4629 16.8465 66.4583 18.1458C65.4538 19.4451 64.1 20.4314 62.5553 20.9893C61.0106 21.5473 59.339 21.6538 57.736 21.2963C56.1331 20.9389 54.665 20.1324 53.5037 18.971C52.3424 17.8097 51.5359 16.3417 51.1784 14.7387C50.821 13.1358 50.9275 11.4641 51.4855 9.91948C52.0434 8.37482 53.0297 7.02101 54.329 6.01645C55.6283 5.01189 57.1868 4.39814 58.8222 4.24701C57.8647 5.54234 57.404 7.1383 57.5237 8.74462C57.6435 10.3509 58.3359 11.8609 59.4749 12.9999C60.6139 14.1389 62.1238 14.8312 63.7302 14.951C65.3365 15.0708 66.9324 14.6101 68.2278 13.6526V13.6526Z" stroke="#F2994A" stroke-width="1.5" stroke-linecap="round" stroke-linejoin="round"/>
<rect x="19.5801" y="37.7996" width="16.2694" height="13.4883" fill="white"/>
<path d="M27.7148 48.6356V39.1451" stroke="url(#paint3_linear)" stroke-width="1.5" stroke-linecap="round" stroke-linejoin="round"/>
<path d="M27.7148 47.2901V37.7996" stroke="url(#paint4_linear)" stroke-width="1.5" stroke-linecap="round" stroke-linejoin="round"/>
<path d="M22.9692 42.5448L27.7145 37.7996L32.4597 42.5448" stroke="url(#paint5_linear)" stroke-width="1.5" stroke-linecap="round" stroke-linejoin="round"/>
<defs>
<linearGradient id="paint0_linear" x1="31.0409" y1="8.68704" x2="31.0409" y2="46.461" gradientUnits="userSpaceOnUse">
<stop stop-color="#F2994A"/>
<stop offset="1" stop-color="#FF7A7A"/>
</linearGradient>
<linearGradient id="paint1_linear" x1="17.0363" y1="4.56487" x2="17.0363" y2="29.5078" gradientUnits="userSpaceOnUse">
<stop stop-color="#F2994A"/>
<stop offset="1" stop-color="#FF7A7A"/>
</linearGradient>
<linearGradient id="paint2_linear" x1="31.0409" y1="8.68579" x2="31.0409" y2="46.4598" gradientUnits="userSpaceOnUse">
<stop stop-color="#F2994A"/>
<stop offset="1" stop-color="#FF7A7A"/>
</linearGradient>
<linearGradient id="paint3_linear" x1="28.2148" y1="39.1451" x2="28.2148" y2="48.6356" gradientUnits="userSpaceOnUse">
<stop stop-color="#F2994A"/>
<stop offset="1" stop-color="#FF7A7A"/>
</linearGradient>
<linearGradient id="paint4_linear" x1="28.2148" y1="37.7996" x2="28.2148" y2="47.2901" gradientUnits="userSpaceOnUse">
<stop stop-color="#F2994A"/>
<stop offset="1" stop-color="#FF7A7A"/>
</linearGradient>
<linearGradient id="paint5_linear" x1="27.7145" y1="37.7996" x2="27.7145" y2="42.5448" gradientUnits="userSpaceOnUse">
<stop stop-color="#F2994A"/>
<stop offset="1" stop-color="#FF7A7A"/>
</linearGradient>
<clipPath id="clip0">
<rect width="16.2694" height="16.2694" fill="white" transform="translate(12.8403 67.7116) rotate(-45)"/>
</clipPath>
</defs>
</svg>
