<svg width="270" height="270" viewBox="0 0 270 270" fill="none" xmlns="http://www.w3.org/2000/svg">
  <path d="M135.612 254.145C196.456 254.145 245.78 203.728 245.78 141.537C245.78 79.3449 196.456 28.9285 135.612 28.9285C74.7681 28.9285 25.4442 79.3449 25.4442 141.537C25.4442 203.728 74.7681 254.145 135.612 254.145Z" fill="#F5F5F5"/>
  <path d="M211.764 98.1902L191.127 112.145C186.047 115.575 179.108 114.138 175.752 108.946C172.396 103.753 173.802 96.6604 178.881 93.2297L199.518 79.2754C204.598 75.8447 211.537 77.2819 214.893 82.4742C218.25 87.6665 216.844 94.7596 211.764 98.1902Z" fill="#FACEA7"/>
  <path d="M178.972 191.513C183.553 237.873 154.843 248.813 128.718 249.602C89.35 250.807 65.1756 177.79 75.5166 167.266C77.8297 164.902 81.5942 165.922 91.2549 161.286C98.7385 157.67 103.501 153.683 105.496 152.107C113.343 145.987 144.547 125.774 162.916 134.768C179.426 142.835 177.067 172.412 178.972 191.513Z" fill="#FACEA7"/>
  <path d="M164.458 186.459C160.784 208.527 143.867 235.462 121.552 236.157C87.9438 237.177 67.3072 174.684 76.1061 165.737C78.0564 163.743 81.2766 164.624 89.5313 160.591C95.9264 157.484 99.963 154.1 101.732 152.756C108.444 147.517 135.068 130.225 150.761 137.921C164.866 144.782 167.18 170.28 164.458 186.459Z" fill="#F8BE91"/>
  <path d="M85.8576 237.873C78.4647 237.873 65.7199 233.329 65.7199 218.865V142.835C65.7199 135.371 71.7521 129.251 79.145 129.251C86.538 129.251 92.5702 135.371 92.5702 142.835V218.865C92.5702 226.329 85.8576 237.873 85.8576 237.873Z" fill="#FACEA7"/>
  <path d="M92.5701 245.893C103.166 245.893 111.755 234.747 111.755 220.998C111.755 207.248 103.166 196.102 92.5701 196.102C81.9744 196.102 73.3848 207.248 73.3848 220.998C73.3848 234.747 81.9744 245.893 92.5701 245.893Z" fill="#FACEA7"/>
  <path d="M170.842 238H78V268.458H170.842V238Z" fill="#F2994A"/>
  <path d="M170.536 263.834H77.6936V265.41H170.536V263.834Z" fill="#ECECEC"/>
  <path d="M80.5057 218.865V142.835C80.5057 138.106 82.9095 133.98 86.538 131.523C84.4063 130.086 81.8664 129.251 79.145 129.251C71.7521 129.251 65.7199 135.371 65.7199 142.835V218.865C65.7199 233.329 78.4647 237.873 85.8576 237.873C85.8576 237.873 86.7647 236.296 87.944 233.886C83.7713 230.965 80.5057 226.19 80.5057 218.865Z" fill="#F8BE91"/>
  <path d="M170.536 241.489H77.6936V243.065H170.536V241.489Z" fill="#ECECEC"/>
  <path d="M67.7154 156.836H65.6744V155.955H67.7154C73.2487 155.955 77.7843 151.319 77.7843 145.663V138.755H65.6744V137.874H78.646V145.709C78.6914 151.829 73.7476 156.836 67.7154 156.836Z" fill="#FCDBBF"/>
  <path d="M185.322 231.938L95.2915 231.892C92.5702 231.892 90.3478 229.62 90.3478 226.839L90.4385 50.0222C90.4385 47.2406 92.6609 44.969 95.3822 44.969L185.412 45.0154C188.134 45.0154 190.356 47.287 190.356 50.0686L190.265 226.885C190.265 229.667 188.043 231.938 185.322 231.938Z" fill="#081F32"/>
  <path d="M182.873 208.48L97.7407 208.434C97.4232 208.434 97.151 208.156 97.151 207.831L97.2417 58.3207C97.2417 57.9962 97.5139 57.718 97.8314 57.718L182.963 57.7644C183.281 57.7644 183.553 58.0425 183.553 58.3671L183.462 207.878C183.508 208.202 183.235 208.48 182.873 208.48Z" fill="white"/>
  <path d="M153.573 52.9429H124.727C123.82 52.9429 123.094 52.2011 123.094 51.2739C123.094 50.3467 123.82 49.605 124.727 49.605H153.573C154.48 49.605 155.206 50.3467 155.206 51.2739C155.251 52.2011 154.48 52.9892 153.573 52.9429Z" fill="#CDEAFB"/>
  <path d="M158.335 52.9893C157.428 52.9893 156.703 52.2475 156.703 51.3203C156.703 50.3931 157.428 49.6514 158.335 49.6514C159.242 49.6514 159.968 50.3931 159.968 51.3203C159.968 52.2012 159.242 52.9893 158.335 52.9893Z" fill="#CDEAFB"/>
  <path d="M198.339 164.624L191.898 168.982C186.818 172.413 179.879 170.975 176.523 165.783C173.166 160.591 174.572 153.498 179.652 150.067L186.093 145.709C191.172 142.279 198.112 143.716 201.468 148.908C204.824 154.147 203.418 161.193 198.339 164.624Z" fill="#FACEA7"/>
  <path d="M201.468 148.908C201.377 148.769 201.287 148.676 201.196 148.537C203.691 152.802 202.466 158.412 198.384 161.193L188.769 167.684C184.687 170.465 179.153 169.399 176.251 165.412C176.341 165.551 176.387 165.69 176.477 165.783C179.834 170.975 186.773 172.412 191.853 168.982L198.293 164.624C203.418 161.193 204.824 154.147 201.468 148.908Z" fill="#F8BE91"/>
  <path d="M187.136 166.618C186.954 166.618 186.818 166.618 186.637 166.571C185.73 166.432 184.913 165.922 184.369 165.18L179.335 157.995C178.292 156.511 178.564 154.425 179.97 153.266L183.19 150.67C184.687 149.464 186.546 148.954 188.451 149.233C190.447 149.511 192.261 150.67 193.486 152.431C195.98 155.955 195.391 160.915 192.216 163.465L189.177 165.922C188.633 166.339 187.907 166.618 187.136 166.618ZM185.095 164.67C185.503 165.227 186.093 165.598 186.773 165.737C187.453 165.829 188.134 165.644 188.678 165.227L191.717 162.77C194.529 160.498 195.028 156.094 192.851 152.941C191.762 151.365 190.175 150.345 188.406 150.113C186.773 149.882 185.095 150.345 183.825 151.365L180.605 153.961C179.562 154.796 179.335 156.372 180.106 157.485L185.095 164.67Z" fill="#FCDBBF"/>
  <path d="M200.561 186.181L194.257 189.334C189.313 191.791 183.281 189.705 180.877 184.651C178.473 179.598 180.514 173.432 185.458 170.975L191.762 167.823C196.706 165.366 202.738 167.452 205.142 172.505C207.591 177.558 205.55 183.724 200.561 186.181Z" fill="#FACEA7"/>
  <path d="M205.186 172.505C205.141 172.366 205.05 172.273 205.005 172.134C206.728 176.26 205.005 181.128 201.014 183.122L191.67 187.758C187.679 189.751 182.872 188.128 180.74 184.188C180.785 184.327 180.831 184.42 180.876 184.559C183.28 189.612 189.312 191.745 194.256 189.241L200.56 186.089C205.549 183.724 207.59 177.558 205.186 172.505Z" fill="#F8BE91"/>
  <path d="M190.764 186.691C190.492 186.691 190.22 186.645 189.948 186.552C189.132 186.32 188.451 185.764 188.043 184.976L184.369 177.929C183.598 176.446 184.097 174.591 185.503 173.71L188.678 171.763C190.175 170.836 191.898 170.604 193.576 171.114C195.345 171.624 196.842 172.876 197.749 174.591C199.563 178.068 198.475 182.472 195.3 184.373L192.306 186.181C191.853 186.552 191.309 186.691 190.764 186.691ZM191.898 171.81C190.946 171.81 189.993 172.088 189.132 172.598L185.957 174.545C184.913 175.148 184.551 176.492 185.14 177.558L188.814 184.605C189.086 185.161 189.585 185.579 190.175 185.718C190.764 185.903 191.399 185.81 191.898 185.486L194.892 183.678C197.658 182.009 198.611 178.115 197.023 175.055C196.207 173.525 194.937 172.459 193.395 171.995C192.851 171.856 192.352 171.81 191.898 171.81Z" fill="#FCDBBF"/>
  <path d="M172.804 208.434H106.812V180.433C106.812 167.684 116.926 157.299 129.444 157.299H150.171C162.644 157.299 172.804 167.637 172.804 180.433V208.434Z" fill="#F2994A"/>
  <path d="M195.617 141.351L188.36 145.663C182.646 149.093 174.845 147.656 171.08 142.51C167.27 137.364 168.858 130.364 174.572 126.98L181.829 122.668C187.544 119.238 195.345 120.675 199.11 125.821C202.919 130.967 201.332 137.967 195.617 141.351Z" fill="#FACEA7"/>
  <path d="M199.11 125.821C199.019 125.682 198.928 125.589 198.792 125.45C201.604 129.669 200.244 135.232 195.617 137.967L184.823 144.411C180.197 147.146 173.983 146.126 170.763 142.14C170.853 142.279 170.944 142.418 171.035 142.51C174.845 147.656 182.6 149.094 188.315 145.663L195.572 141.351C201.332 137.967 202.92 130.967 199.11 125.821Z" fill="#F8BE91"/>
  <path d="M181.467 143.252C181.285 143.252 181.149 143.252 180.968 143.206C180.06 143.067 179.244 142.557 178.7 141.815L173.665 134.629C172.622 133.146 172.894 131.059 174.3 129.9L177.521 127.304C179.017 126.099 180.877 125.589 182.782 125.867C184.777 126.145 186.592 127.304 187.816 129.066C190.265 132.589 189.721 137.55 186.546 140.1L183.507 142.557C182.963 143.02 182.238 143.252 181.467 143.252ZM179.426 141.305C179.834 141.861 180.423 142.232 181.104 142.371C181.784 142.464 182.464 142.279 183.009 141.861L186.047 139.404C188.859 137.133 189.358 132.728 187.181 129.576C186.093 128 184.505 126.98 182.691 126.748C181.058 126.516 179.426 126.98 178.11 128L174.89 130.596C173.847 131.43 173.62 133.007 174.391 134.119L179.426 141.305Z" fill="#FCDBBF"/>
  <path d="M139.785 228.508C144.369 228.508 148.085 224.71 148.085 220.024C148.085 215.339 144.369 211.54 139.785 211.54C135.201 211.54 131.485 215.339 131.485 220.024C131.485 224.71 135.201 228.508 139.785 228.508Z" fill="#CDEAFB"/>
  <path d="M151.124 159.432L150.126 134.119L130.623 133.563L129.444 163.233C129.308 166.478 132.075 165.876 135.249 165.736L145.999 165.18C148.992 164.995 151.26 162.445 151.124 159.432Z" fill="#FACBB6"/>
  <path d="M131.349 139.404L150.806 151.087L150.126 134.119L131.349 139.404Z" fill="#F6B7A0"/>
  <path d="M173.393 116.085C173.393 120.211 170.128 123.549 166.091 123.549C162.054 123.549 158.789 120.211 158.789 116.085C158.789 111.959 162.054 108.621 166.091 108.621C170.128 108.621 173.393 111.959 173.393 116.085Z" fill="#FACBB6"/>
  <path d="M115.701 123.549C119.734 123.549 123.004 120.207 123.004 116.085C123.004 111.963 119.734 108.621 115.701 108.621C111.668 108.621 108.399 111.963 108.399 116.085C108.399 120.207 111.668 123.549 115.701 123.549Z" fill="#FACBB6"/>
  <path d="M163.597 102.733C163.597 112.237 162.236 120.443 160.921 126.284C159.605 131.987 155.886 135.974 150.67 139.172L149.718 139.729C144.139 143.159 137.064 143.252 131.394 139.96C125.725 136.669 121.779 132.311 120.554 126.192C118.332 115.065 118.105 102.733 118.105 102.733C118.105 102.733 115.974 78.7191 140.511 79.1827C165.048 79.6926 163.597 102.733 163.597 102.733Z" fill="#FACBB6"/>
  <path d="M119.42 112.515C119.42 112.515 124.591 95.455 120.826 84.4214C120.872 84.4214 106.404 88.6401 119.42 112.515Z" fill="#01384F"/>
  <path d="M162.689 112.515C162.689 112.515 156.158 95.455 159.923 84.4214C159.877 84.4214 173.393 87.8057 162.689 112.515Z" fill="#01384F"/>
  <path d="M121.915 92.0706C121.915 92.0706 126.042 84.4212 133.481 88.6399C140.919 92.8587 148.266 96.892 161.556 93.5541L159.787 84.3748C159.787 84.3748 141.327 64.301 120.736 84.3748L121.915 92.0706Z" fill="#01384F"/>
  <path d="M120.736 84.3749C120.736 84.3749 121.915 70.467 141.146 69.2616C160.376 68.0562 166.046 78.5336 166.046 78.5336L162.553 79.1826C162.553 79.1826 169.266 82.1496 171.035 85.024L167.27 86.3684L172.259 90.9117C172.259 90.9117 156.566 97.1239 147.904 93.786L140.692 82.6596L120.736 84.3749Z" fill="#01384F"/>
  <path d="M132.755 156.975L124.636 157.114C124.636 157.114 123.775 167.637 139.604 168.147C155.433 168.657 155.705 157.763 155.705 157.763L147.133 156.975H132.755Z" fill="#FACBB6"/>
  <path d="M168.631 143.948H110.032V84.0969H168.631V143.948ZM110.803 143.206H167.86V84.8387H110.803V143.206Z" fill="#081F32"/>
  <mask id="mask0" mask-type="alpha" maskUnits="userSpaceOnUse" x="110" y="103" width="59" height="26">
    <path d="M168.404 103.29H110.304V128.927H168.404V103.29Z" fill="url(#paint0_linear)"/>
  </mask>
  <g mask="url(#mask0)">
    <path d="M168.404 103.29H110.304V128.927H168.404V103.29Z" fill="#081F32"/>
  </g>
  <defs>
    <linearGradient id="paint0_linear" x1="139.326" y1="101.207" x2="139.326" y2="127.751" gradientUnits="userSpaceOnUse">
      <stop stop-color="white"/>
      <stop offset="1"/>
    </linearGradient>
  </defs>
</svg>
